# xmcd CD database file
#
# Track frame offsets:
#	150
#	15464
#	41026
#	65416
#	82696
#	97771
#	110156
#	132049
#	154851
#	177535
#	197654
#	216912
#	236170
#	261925
#	283015
#	302738
#
# Disc length: 4184 seconds
#
# Revision: 0
# Processed by: cddbd v1.5.2PL0 Copyright (c) Steve Scherf et al.
# Submitted via: CDex 1.51
#
DISCID=dd105610
DTITLE=Taxim Records - Rocky Mountain Blues
DYEAR=2006
DGENRE=Blues
TTITLE0=Dan Treanor and African Wind - From African Soul
TTITLE1=The Johnny O Band - When The Mountain Comes Down
TTITLE2=Mary Ann Brandon - Time To Kill
TTITLE3=Tommy Thomas - What A Real Man Should Do
TTITLE4=Ben Stevens - Driving Fast Behind A Chocolate Moon
TTITLE5=Ken Seydak - I Learned My Lesson
TTITLE6=Tempa And The Tantrums - Love Is A Bed For The Blues
TTITLE7=Alfred James - 100 Years Of The Blues
TTITLE8=Liz Barnez - How Long
TTITLE9=Steve Glotzer - Make Up Your Mind
TTITLE10=Steve Hohn - Dissatisfied
TTITLE11=Lobo Lenny and Fingers - Goin To Mississippi
TTITLE12=Erica Brown Band - Cajun Moon
TTITLE13=The Alleygators - Do You Have A Garter Belt
TTITLE14=Willie Houston - Sally Mae
TTITLE15=Ben Stevens - Shermans Rag
EXTD=YEAR: 2006
EXTT0=
EXTT1=
EXTT2=
EXTT3=
EXTT4=
EXTT5=
EXTT6=
EXTT7=
EXTT8=
EXTT9=
EXTT10=
EXTT11=
EXTT12=
EXTT13=
EXTT14=
EXTT15=
PLAYORDER=
